<svg xmlns="http://www.w3.org/2000/svg" viewBox="0 0 389.31 246.9"><defs><style>.cls-1{fill:#131217;}.cls-2{fill:#30364a;}.cls-3{fill:#757b92;}.cls-4{fill:#c5d0eb;}</style></defs><g id="Слой_2" data-name="Слой 2"><g id="Front_Cirle_2" data-name="Front Cirle 2"><path class="cls-1" d="M389.31,93c-1.73,5.81-5.75,8.49-11.63,9.52a179.67,179.67,0,0,0-23,5.8,17,17,0,0,1,2.56,1.6c8.52,7.8,13.44,17.49,12.94,29-1,23.36-2.43,46.71-4.08,70-.74,10.42-7.37,18.57-17.48,20.11a80.7,80.7,0,0,1-25.44-.1c-11.08-1.9-17.83-12.13-17.44-23.39,0-1.12,0-2.25,0-3.57H123.35c-1.37,5.53-1.88,11.08-4.11,15.84-3.53,7.52-10.2,11.53-18.58,12-5.46.32-11,.29-16.42.08-12.09-.47-21.33-8.79-22.3-20.83-1.41-17.62-2.24-35.28-3.31-52.93-.31-5.24-.64-10.48-.82-15.72-.43-12.13,4-22.24,12.83-30.49.73-.68,1.45-1.36,2.54-2.4-9-2-17.47-3.91-26-5.93-7.19-1.71-10.73-10.5-6.78-16.5a5.93,5.93,0,0,1,6.72-2.89c10,2.25,20.09,4.23,29.94,7,3.11.89,5.59,4,8.47,6.2C90.63,88.69,95.88,80.8,102,73.67c8.24-9.57,17-18.69,25.86-27.72,6.87-7,15.82-9.46,25.36-10.55,29.9-3.43,59.89-3.25,89.89-2.27,11.49.38,22.95,1.82,34.43,2.68C288.18,36.62,296.42,42,303.9,49c13.05,12.24,24,26.27,34.34,40.76,1.56,2.19,3.16,4.35,5.17,7.1,1.56-6.11,6-7.62,10.88-8.66,7.91-1.67,15.78-3.55,23.66-5.36,7.11-1.64,8.6-.86,11.36,6Zm-285.4,6.64H323.75c-5.28-9.26-26.19-33.79-34.33-40.46-3.48-2.85-7.12-5.36-11.75-5.82-9.74-1-19.48-2.25-29.26-2.72-11.53-.56-23.06-.89-34.58-.91-17.65,0-35.3.63-52.92,2.24-8.23.76-16.41,1.55-23.12,7.77C125,71.55,114.66,85.37,103.91,99.59Zm-21.69,44.3a23.65,23.65,0,0,0,1,2.68c8.14,15.86,25.24,19.13,39,13.58,10.25-4.16,20.41-7.16,31.68-7.07q57.13.45,114.28,0c10.92-.08,20.77,2.86,30.69,6.9,11,4.49,21.94,3.74,31.63-3.84a23.92,23.92,0,0,0,8.69-12.25Zm131.46,46.38h12c7,0,13.91.06,20.87-.05,3.54-.05,5.82-2.3,5.83-5.38,0-2.9-2.17-5.11-5.47-5.48a22.7,22.7,0,0,0-2.74-.06q-30.1,0-60.22,0a15.14,15.14,0,0,0-4.71.55,5.2,5.2,0,0,0-2.82,7.56c1.36,2.42,3.61,2.86,6.14,2.85C192.92,190.25,203.3,190.27,213.68,190.27Z"/><path class="cls-2" d="M204.82,31.53c0,8.35.22,16.17,0,24-.37,10.57-1.21,21.13-1.68,31.69-.6,13.78-3.41,27.17-6.75,40.48-7.06,28.19-20.24,53.33-38.65,75.6a176.92,176.92,0,0,1-46.46,40,37.63,37.63,0,0,1-7.49,3.46,5.74,5.74,0,0,1-4.15-.62c-6.37-3.77-13-7.25-18.83-11.75a212.38,212.38,0,0,1-29.42-26.74c-9.7-10.92-17.58-23.08-24.8-35.72-9.35-16.37-14.84-34.15-19.38-52.31C3.9,106.59,2.51,93.38,2,80,1.31,64.89.75,49.74,0,34.59c-.12-2.38.77-3.12,2.88-3.48,11.26-1.93,22.54-3.73,33.73-6C55,21.44,72.3,14.38,89.17,6.29c3.7-1.78,7.39-3.57,11-5.53a5.14,5.14,0,0,1,5.31,0C119.79,8,134.34,14.83,149.65,19.88c12.84,4.23,26,6.79,39.34,8.9C194.42,29.64,199.82,30.66,204.82,31.53Z"/><path class="cls-3" d="M25.22,123.45c3.59,13.82,8,27.33,15.13,39.83,5.93,10.39,12.41,20.39,20.39,29.36a174.28,174.28,0,0,0,24.18,22c4.8,3.7,10.25,6.56,15.48,9.66a5.16,5.16,0,0,0,2.36.65V123.45Z"/><path class="cls-4" d="M180.3,123.45c-3.59,13.82-8,27.33-15.13,39.83-5.93,10.39-12.41,20.39-20.39,29.36a173.79,173.79,0,0,1-24.19,22c-4.79,3.7-10.24,6.56-15.48,9.66a5.09,5.09,0,0,1-2.35.65V123.45Z"/><path class="cls-4" d="M20.13,87.76a162.12,162.12,0,0,0,4.28,32.51l.81,3.18h77.54V22a4.7,4.7,0,0,0-1.88.61c-3,1.61-6,3.09-9,4.54C78,33.77,63.78,39.57,48.63,42.61c-9.2,1.85-18.47,3.33-27.72,4.91-1.74.3-2.47.91-2.37,2.87C19.15,62.84,19.6,75.3,20.13,87.76Z"/><path class="cls-3" d="M185.39,87.76a162.12,162.12,0,0,1-4.28,32.51l-.81,3.18H102.76V22a4.7,4.7,0,0,1,1.88.61c3,1.61,6,3.09,9,4.54,13.87,6.66,28.06,12.46,43.21,15.5,9.2,1.85,18.47,3.33,27.72,4.91,1.74.3,2.47.91,2.37,2.87C186.37,62.84,185.92,75.3,185.39,87.76Z"/></g></g></svg>