<?xml version="1.0" encoding="utf-8"?>
<!-- Generator: Adobe Illustrator 24.1.2, SVG Export Plug-In . SVG Version: 6.00 Build 0)  -->
<svg version="1.1" xmlns="http://www.w3.org/2000/svg" xmlns:xlink="http://www.w3.org/1999/xlink" x="0px" y="0px"
	 viewBox="0 0 2834.65 2834.65" style="enable-background:new 0 0 2834.65 2834.65;" xml:space="preserve">
<style type="text/css">
	.st0{fill:#131217;}
	.st1{fill:#30364A;}
	.st2{fill:#757B92;}
	.st3{fill:#C5D0EB;}
	.st4{fill:none;}
</style>
<g id="tmp">
</g>
<g id="Front">
</g>
<g id="Front_Cirle">
</g>
<g id="Front_Cirle_2">
	<g>
		<path class="st0" d="M418.55,117.22c-1.72,5.81-5.75,8.49-11.63,9.51c-7.5,1.31-14.87,3.28-22.95,5.81
			c0.86,0.53,1.83,0.93,2.56,1.6c8.52,7.8,13.44,17.48,12.94,29.04c-1.01,23.36-2.43,46.7-4.08,70.03
			c-0.74,10.42-7.37,18.57-17.48,20.11c-8.31,1.26-17.17,1.33-25.44-0.09c-11.08-1.91-17.82-12.13-17.44-23.4
			c0.04-1.12,0.01-2.24,0.01-3.57c-61.14,0-122.24,0-182.44,0c-1.37,5.53-1.88,11.09-4.11,15.84c-3.53,7.53-10.2,11.54-18.58,12.02
			c-5.46,0.31-10.95,0.29-16.42,0.07c-12.09-0.47-21.33-8.79-22.3-20.83c-1.42-17.62-2.25-35.29-3.31-52.93
			c-0.31-5.24-0.64-10.48-0.83-15.72c-0.42-12.12,4.01-22.24,12.84-30.49c0.73-0.68,1.44-1.36,2.54-2.4
			c-8.96-2.04-17.47-3.91-25.95-5.93c-7.19-1.71-10.73-10.5-6.79-16.5c1.63-2.49,3.84-3.53,6.72-2.88c10,2.25,20.09,4.22,29.94,7.02
			c3.12,0.88,5.6,4.01,8.47,6.2c5.06-6.76,10.31-14.65,16.46-21.78c8.25-9.57,17.03-18.68,25.87-27.72
			c6.87-7.02,15.82-9.46,25.35-10.55c29.9-3.43,59.9-3.25,89.9-2.27c11.49,0.38,22.95,1.81,34.43,2.68
			c10.61,0.8,18.85,6.21,26.33,13.23c13.05,12.24,23.96,26.27,34.34,40.76c1.57,2.19,3.17,4.35,5.17,7.09
			c1.57-6.1,5.97-7.62,10.88-8.65c7.91-1.67,15.78-3.56,23.66-5.37c7.11-1.63,8.61-0.86,11.36,5.97
			C418.55,114.48,418.55,115.85,418.55,117.22z M133.15,123.85c73.67,0,146.69,0,219.85,0c-5.28-9.25-26.2-33.79-34.33-40.45
			c-3.49-2.86-7.13-5.37-11.75-5.83c-9.75-0.97-19.49-2.25-29.26-2.72c-11.53-0.56-23.06-0.88-34.58-0.91
			c-17.65-0.04-35.3,0.63-52.92,2.24c-8.24,0.76-16.42,1.55-23.12,7.77C154.26,95.82,143.91,109.64,133.15,123.85z M111.46,168.16
			c0.37,1.04,0.58,1.91,0.98,2.68c8.14,15.86,25.24,19.13,38.94,13.58c10.26-4.16,20.42-7.16,31.68-7.07
			c38.09,0.3,76.19,0.29,114.28,0.01c10.92-0.08,20.77,2.86,30.69,6.9c11.02,4.49,21.93,3.74,31.62-3.84
			c3.99-3.12,7.19-7.05,8.7-12.25C282.55,168.16,197.16,168.16,111.46,168.16z M242.92,214.53c3.99,0,7.98,0,11.98,0
			c6.96,0,13.92,0.06,20.87-0.04c3.55-0.05,5.83-2.3,5.83-5.39c0.01-2.89-2.18-5.11-5.47-5.48c-0.9-0.1-1.82-0.05-2.73-0.05
			c-20.07,0-40.15-0.01-60.22,0.02c-1.58,0-3.24,0.06-4.71,0.55c-3.19,1.06-4.44,4.67-2.82,7.55c1.36,2.42,3.61,2.86,6.14,2.85
			C222.17,214.51,232.54,214.53,242.92,214.53z"/>
		<g>
			<path class="st1" d="M234.06,55.8c0,8.35,0.22,16.17-0.05,23.98c-0.37,10.57-1.21,21.13-1.67,31.7
				c-0.61,13.78-3.42,27.16-6.75,40.48c-7.06,28.19-20.24,53.33-38.65,75.59c-13.15,15.9-28.59,29.44-46.46,39.99
				c-2.36,1.4-4.89,2.62-7.49,3.46c-1.21,0.39-3.01,0.05-4.15-0.63c-6.37-3.77-13-7.25-18.83-11.74
				c-10.5-8.1-20.56-16.78-29.42-26.75c-9.7-10.92-17.58-23.08-24.8-35.71c-9.35-16.37-14.84-34.16-19.39-52.32
				c-3.25-13-4.64-26.21-5.21-39.54c-0.64-15.15-1.2-30.3-1.94-45.45c-0.12-2.38,0.77-3.13,2.88-3.49
				c11.25-1.92,22.53-3.73,33.72-5.97c18.42-3.7,35.69-10.76,52.56-18.85c3.7-1.77,7.39-3.56,10.99-5.52c1.86-1.01,3.41-1,5.31-0.04
				c14.32,7.31,28.88,14.1,44.19,19.15c12.83,4.23,26.03,6.79,39.34,8.9C223.66,53.9,229.06,54.92,234.06,55.8z"/>
			<g>
				<path class="st2" d="M54.46,147.71c3.59,13.82,7.99,27.33,15.13,39.83c5.93,10.39,12.41,20.39,20.39,29.36
					c7.28,8.19,15.55,15.33,24.19,21.99c4.79,3.7,10.24,6.56,15.48,9.66c0.64,0.38,1.54,0.63,2.35,0.65V147.71H54.46z"/>
				<path class="st3" d="M209.54,147.71c-3.59,13.82-7.99,27.33-15.13,39.83c-5.93,10.39-12.41,20.39-20.39,29.36
					c-7.28,8.19-15.55,15.33-24.19,21.99c-4.79,3.7-10.24,6.56-15.48,9.66c-0.64,0.38-1.54,0.63-2.35,0.65V147.71H209.54z"/>
				<path class="st3" d="M49.37,112.02c0.46,10.96,1.61,21.82,4.28,32.51c0.27,1.06,0.54,2.12,0.81,3.18H132V46.23
					c-0.61,0.05-1.22,0.25-1.88,0.61c-2.96,1.61-6,3.08-9.04,4.54c-13.87,6.65-28.06,12.46-43.21,15.5
					c-9.2,1.85-18.48,3.33-27.73,4.91c-1.74,0.3-2.47,0.91-2.37,2.87C48.39,87.11,48.85,99.57,49.37,112.02z"/>
				<path class="st2" d="M214.63,112.02c-0.46,10.96-1.61,21.82-4.28,32.51c-0.27,1.06-0.54,2.12-0.81,3.18H132V46.23
					c0.61,0.05,1.22,0.25,1.88,0.61c2.96,1.61,6,3.08,9.04,4.54c13.87,6.65,28.06,12.46,43.21,15.5c9.2,1.85,18.48,3.33,27.73,4.91
					c1.74,0.3,2.47,0.91,2.37,2.87C215.62,87.11,215.16,99.57,214.63,112.02z"/>
			</g>
		</g>
	</g>
	<path class="st4" d="M573.06,269.82C573,294,573,318,573.06,342.26"/>
	<path class="st4" d="M0,342.26C0,228,0,114,0,0c187,0,375,0,561.75,0"/>
	<path class="st4" d="M57.23,342.26C38,342,19,342,0,342.26"/>
	<path class="st4" d="M528.13,342.26C392,342,255,342,118.75,342.26"/>
	<line class="st4" x1="573.06" y1="342.26" x2="528.13" y2="342.26"/>
</g>
<g id="Side">
</g>
</svg>
